<?xml version="1.0" encoding="utf-8"?>
<!-- Generator: Adobe Illustrator 19.2.1, SVG Export Plug-In . SVG Version: 6.00 Build 0)  -->
<svg version="1.1" id="Layer_1" xmlns="http://www.w3.org/2000/svg" xmlns:xlink="http://www.w3.org/1999/xlink" x="0px" y="0px"
	 viewBox="0 0 640 145" style="enable-background:new 0 0 640 145;" xml:space="preserve">
<style type="text/css">
	.st0{fill:#B4907E;}
	.st1{fill:#323232;}
</style>
<g>
	<path class="st0" d="M424.7,25v54.5h13.6V63.5h28.4c4.6,0,8.4-1.6,11.6-4.8c3.2-3.2,4.7-7.1,4.7-11.8v-5.1c0-4.6-1.6-8.6-4.8-11.9
		c-3.2-3.3-7-4.9-11.6-4.9L424.7,25z M438.3,49.9v-11h28.4c0.8,0,1.5,0.3,2,0.8c0.5,0.6,0.8,1.2,0.8,2.1v5.3c0,0.8-0.3,1.4-0.8,2
		c-0.5,0.5-1.2,0.8-1.9,0.8H438.3z"/>
	<path class="st0" d="M494.8,25v54.4h13.6V63.5H522l15.4,15.8h19.2l-15.4-15.8c4.4-0.2,8.1-2,11-5.1c3-3.2,4.5-7,4.5-11.5v-5.1
		c0-4.7-1.6-8.6-4.7-11.9c-3.2-3.3-7-4.9-11.6-4.9L494.8,25z M508.3,49.9v-11h32c0.8,0,1.5,0.3,2,0.8c0.5,0.6,0.8,1.2,0.8,2.1v5.3
		c0,0.8-0.3,1.4-0.8,2c-0.5,0.5-1.2,0.8-2,0.8H508.3z"/>
	<path class="st0" d="M616.7,25h-31.2c-4.6,0-8.5,1.6-11.6,4.9c-3.2,3.3-4.8,7.2-4.8,11.9v20.8c0,4.7,1.6,8.7,4.8,11.9
		c3.2,3.3,7.1,4.9,11.6,4.9h31.2c4.6,0,8.4-1.6,11.6-4.9c3.2-3.3,4.8-7.2,4.8-11.9V41.8c0-4.7-1.6-8.7-4.8-11.9
		C625.1,26.6,621.3,25,616.7,25 M585.4,65.5c-0.8,0-1.5-0.3-2-0.8c-0.5-0.6-0.8-1.2-0.8-2.1V41.8c0-0.8,0.3-1.5,0.8-2.1
		c0.5-0.6,1.2-0.8,2-0.8h31.3c0.8,0,1.5,0.3,2,0.8c0.5,0.6,0.8,1.2,0.8,2.1v20.8c0,0.8-0.3,1.5-0.8,2.1c-0.5,0.5-1.2,0.8-2,0.8
		H585.4z"/>
	<path class="st1" d="M183.3,93.5H5.1c-1,0-1.8,0.8-1.8,1.9c0,1,0.8,1.9,1.8,1.9h178.2c1,0,1.8-0.8,1.8-1.9
		C185.2,94.3,184.3,93.5,183.3,93.5"/>
	<path class="st1" d="M634.9,93.5H220.7c-1,0-1.8,0.8-1.8,1.9c0,1,0.8,1.9,1.8,1.9h414.2c1,0,1.8-0.8,1.8-1.9
		C636.7,94.3,635.9,93.5,634.9,93.5"/>
	<path class="st1" d="M125.9,114.6l-0.3,0c-0.4,0.1-0.7,0.3-1,0.7l-6.8,10.3l-6.7-10.3c-0.3-0.4-0.6-0.6-1-0.7l-0.3,0
		c-0.3,0-0.6,0.1-0.9,0.3c-0.3,0.3-0.6,0.6-0.7,1l0,0.3c0,0.3,0.1,0.6,0.3,0.9l7.8,11.9v11.7c0,0.4,0.2,0.8,0.5,1.1
		c0.3,0.3,0.7,0.5,1.1,0.5h0c0.4,0,0.8-0.2,1.1-0.5c0.3-0.3,0.5-0.7,0.5-1.1v-11.8l7.8-11.8c0.2-0.3,0.3-0.6,0.3-0.9l0-0.3
		c-0.1-0.4-0.3-0.8-0.7-1C126.5,114.7,126.2,114.6,125.9,114.6 M568.4,114.6L568.4,114.6L568.4,114.6c-0.5,0-0.9,0.2-1.2,0.5
		c-0.3,0.3-0.5,0.7-0.5,1.1v24.5c0,0.4,0.2,0.8,0.5,1.1c0.3,0.3,0.7,0.5,1.1,0.5h0h11.9l0,0c0.4,0,0.8-0.2,1.1-0.5
		c0.3-0.3,0.5-0.7,0.5-1.1c0-0.4-0.2-0.8-0.5-1.1c-0.3-0.3-0.7-0.5-1.1-0.5h0h-10.3v-22.9c0-0.4-0.2-0.8-0.5-1.1
		C569.2,114.8,568.8,114.6,568.4,114.6 M412.2,114.6L412.2,114.6h-14.5h0c-0.4,0-0.8,0.2-1.1,0.5c-0.3,0.3-0.5,0.7-0.5,1.1
		c0,0.4,0.2,0.9,0.5,1.1c0.3,0.3,0.7,0.5,1.1,0.5h5.7v22.9c0,0.4,0.1,0.8,0.5,1.1c0.3,0.3,0.7,0.5,1.1,0.5h0c0.4,0,0.8-0.2,1.1-0.5
		c0.3-0.3,0.5-0.7,0.5-1.1v-22.9h5.6c0.4,0,0.8-0.2,1.1-0.5c0.3-0.3,0.5-0.7,0.5-1.1c0-0.4-0.2-0.8-0.5-1.1
		C413,114.8,412.7,114.6,412.2,114.6 M315.9,114.6L315.9,114.6h-14.5h0c-0.4,0-0.8,0.2-1.1,0.5c-0.3,0.3-0.5,0.7-0.5,1.1
		c0,0.4,0.2,0.9,0.5,1.1c0.3,0.3,0.7,0.5,1.1,0.5h5.7v22.9c0,0.4,0.1,0.8,0.5,1.1c0.3,0.3,0.7,0.5,1.1,0.5h0c0.4,0,0.8-0.2,1.1-0.5
		c0.3-0.3,0.5-0.7,0.5-1.1v-22.9h5.6c0.4,0,0.8-0.2,1.1-0.5c0.3-0.3,0.5-0.7,0.5-1.1c0-0.4-0.2-0.8-0.5-1.1
		C316.7,114.8,316.3,114.6,315.9,114.6 M212.4,114.6L212.4,114.6L212.4,114.6c-0.5,0-0.9,0.2-1.2,0.5c-0.3,0.3-0.5,0.7-0.5,1.1v24.6
		c0,0.4,0.2,0.8,0.5,1.1c0.3,0.3,0.7,0.5,1.1,0.5h0c0.4,0,0.8-0.2,1.1-0.5c0.3-0.3,0.5-0.7,0.5-1.1v-24.6c0-0.4-0.2-0.8-0.5-1.1
		C213.2,114.8,212.9,114.6,212.4,114.6 M162.9,114.6L162.9,114.6L162.9,114.6c-0.5,0-0.9,0.2-1.1,0.5c-0.3,0.3-0.5,0.7-0.5,1.1v24.6
		c0,0.4,0.2,0.8,0.5,1.1c0.3,0.3,0.7,0.5,1.1,0.5h11.9c0.4,0,0.8-0.2,1.1-0.5c0.3-0.3,0.5-0.7,0.5-1.1c0-0.4-0.2-0.9-0.5-1.2
		c-0.3-0.3-0.7-0.5-1.1-0.5h0h-10.3v-22.9c0-0.4-0.2-0.8-0.5-1.1C163.7,114.8,163.4,114.6,162.9,114.6 M73.2,114.6L73.2,114.6H58.7
		h0c-0.4,0-0.8,0.2-1.1,0.5c-0.3,0.3-0.5,0.7-0.5,1.1c0,0.4,0.1,0.9,0.5,1.1c0.3,0.3,0.7,0.5,1.1,0.5h5.7v22.9
		c0,0.4,0.1,0.8,0.5,1.1c0.3,0.3,0.7,0.5,1.1,0.5h0c0.4,0,0.8-0.2,1.1-0.5c0.3-0.3,0.5-0.7,0.5-1.1v-22.9h5.6c0.4,0,0.8-0.2,1.1-0.5
		c0.3-0.3,0.5-0.7,0.5-1.1c0-0.4-0.2-0.8-0.5-1.1C74,114.8,73.6,114.6,73.2,114.6 M624.6,114.6c-1,0-1.9,0.2-2.9,0.5
		c-1,0.3-1.8,0.7-2.6,1.4c-0.8,0.6-1.4,1.3-1.9,2.2c-0.5,0.9-0.7,1.9-0.7,3c0,1,0.3,1.9,0.8,2.7c0.5,0.7,1.2,1.4,2,2
		c0.8,0.6,1.6,1,2.6,1.4c0.9,0.4,1.8,0.7,2.7,1c0.8,0.3,1.6,0.6,2.3,0.9c0.7,0.3,1.3,0.7,1.8,1.1c0.5,0.4,0.9,0.9,1.1,1.4
		c0.3,0.5,0.4,1.1,0.4,1.9c0,0.7-0.2,1.4-0.5,2c-0.3,0.6-0.7,1.2-1.2,1.6c-0.5,0.5-1.1,0.8-1.8,1.1c-0.7,0.3-1.4,0.4-2.1,0.4
		c-0.4,0-1-0.1-1.5-0.2c-0.6-0.1-1.1-0.3-1.7-0.6c-0.6-0.3-1.1-0.6-1.6-0.9c-0.5-0.4-0.8-0.8-1-1.2c-0.2-0.4-0.6-0.7-1-0.8l-0.4-0.1
		c-0.3,0-0.6,0.1-0.8,0.3c-0.4,0.2-0.7,0.6-0.8,1l-0.1,0.4c0,0.3,0.1,0.6,0.2,0.8c0.3,0.7,0.9,1.3,1.5,1.9c0.6,0.6,1.3,1,2.1,1.4
		c0.8,0.4,1.6,0.7,2.5,0.9c0.9,0.2,1.7,0.3,2.5,0.3c1.1,0,2.2-0.2,3.3-0.6c1.1-0.4,2-1,2.8-1.7c0.8-0.8,1.5-1.6,2-2.7
		c0.5-1,0.7-2.2,0.7-3.3c0-1.2-0.2-2.2-0.5-3.1c-0.4-0.9-0.9-1.6-1.5-2.3c-0.7-0.7-1.4-1.2-2.3-1.7c-0.9-0.5-1.8-0.9-2.9-1.3
		c-0.5-0.2-1.2-0.4-1.9-0.7c-0.7-0.3-1.5-0.5-2.1-0.9c-0.7-0.3-1.2-0.7-1.7-1.2c-0.4-0.4-0.6-0.8-0.6-1.3c0-0.8,0.2-1.3,0.5-1.8
		c0.3-0.5,0.7-0.9,1.2-1.2c0.5-0.3,1-0.5,1.6-0.6c0.6-0.1,1.1-0.2,1.7-0.2c0.3,0,0.7,0,1.2,0.1c0.4,0,0.9,0.1,1.3,0.3
		c0.4,0.2,0.9,0.4,1.3,0.7c0.4,0.3,0.8,0.7,1.1,1.3c0.2,0.4,0.6,0.7,1,0.8l0.4,0.1c0.3,0,0.6-0.1,0.8-0.3c0.4-0.2,0.7-0.7,0.7-1.1
		l0-0.3c0-0.4-0.1-0.7-0.3-1c-0.5-0.7-1.1-1.3-1.7-1.8c-0.6-0.5-1.3-0.8-1.9-1.1c-0.7-0.3-1.3-0.4-2-0.5
		C625.9,114.7,625.2,114.6,624.6,114.6 M257.5,114.6c-0.9,0-1.9,0.2-2.8,0.5c-1,0.3-1.8,0.7-2.6,1.4c-0.8,0.6-1.4,1.3-1.9,2.2
		c-0.5,0.9-0.7,1.9-0.7,3c0,1,0.3,1.9,0.8,2.7c0.5,0.7,1.2,1.4,2,2c0.8,0.6,1.6,1,2.6,1.4c0.9,0.4,1.8,0.7,2.7,1
		c0.8,0.3,1.6,0.6,2.3,0.9c0.7,0.3,1.3,0.7,1.8,1.1c0.5,0.4,0.9,0.9,1.2,1.4c0.3,0.5,0.4,1.1,0.4,1.9c0,0.7-0.2,1.4-0.5,2
		c-0.3,0.6-0.7,1.2-1.2,1.6c-0.5,0.5-1.1,0.8-1.8,1.1c-0.7,0.3-1.4,0.4-2.1,0.4c-0.4,0-1-0.1-1.5-0.2c-0.6-0.1-1.1-0.3-1.7-0.6
		c-0.6-0.3-1.1-0.6-1.5-0.9c-0.5-0.3-0.8-0.8-1-1.2c-0.2-0.4-0.6-0.7-1-0.8l-0.4-0.1c-0.3,0-0.6,0.1-0.8,0.2c-0.4,0.2-0.7,0.6-0.8,1
		l-0.1,0.4c0,0.3,0.1,0.6,0.2,0.8c0.3,0.7,0.8,1.3,1.5,1.9c0.6,0.6,1.4,1,2.1,1.4c0.8,0.4,1.6,0.7,2.5,0.9c0.9,0.2,1.7,0.3,2.5,0.3
		c1.1,0,2.3-0.2,3.3-0.6c1.1-0.4,2-1,2.8-1.7c0.8-0.8,1.5-1.6,2-2.7c0.5-1,0.7-2.2,0.7-3.3c0-1.2-0.2-2.2-0.5-3.1
		c-0.4-0.8-0.9-1.6-1.5-2.3c-0.7-0.7-1.4-1.2-2.3-1.7c-0.9-0.5-1.8-0.9-2.9-1.3c-0.5-0.2-1.2-0.4-1.9-0.7c-0.7-0.3-1.4-0.5-2.1-0.9
		c-0.7-0.3-1.2-0.7-1.7-1.2c-0.4-0.4-0.6-0.8-0.6-1.3c0-0.7,0.1-1.3,0.5-1.8c0.3-0.5,0.7-0.9,1.2-1.2c0.5-0.3,1-0.5,1.6-0.6
		c0.6-0.1,1.2-0.2,1.7-0.2c0.4,0,0.8,0,1.2,0.1c0.4,0.1,0.9,0.1,1.3,0.3c0.4,0.2,0.9,0.4,1.3,0.7c0.4,0.3,0.8,0.7,1.1,1.3
		c0.2,0.4,0.6,0.6,1,0.8l0.4,0.1c0.3,0,0.6-0.1,0.9-0.3c0.4-0.2,0.7-0.7,0.7-1.1l0-0.3c0-0.4-0.1-0.7-0.3-1.1
		c-0.5-0.7-1.1-1.3-1.7-1.8c-0.6-0.5-1.3-0.8-1.9-1.1c-0.7-0.3-1.3-0.4-2-0.5C258.8,114.7,258.1,114.6,257.5,114.6 M14.8,114.6
		c-0.9,0-1.9,0.2-2.8,0.5c-1,0.3-1.8,0.7-2.6,1.4c-0.8,0.6-1.4,1.3-1.9,2.2c-0.5,0.9-0.7,1.9-0.7,3c0,1,0.3,1.9,0.8,2.7
		c0.5,0.7,1.2,1.4,2,2c0.8,0.6,1.6,1,2.6,1.4c0.9,0.4,1.8,0.7,2.7,1c0.8,0.3,1.6,0.6,2.3,0.9c0.7,0.3,1.3,0.7,1.8,1.1
		c0.5,0.4,0.9,0.9,1.1,1.4c0.3,0.5,0.4,1.1,0.4,1.9c0,0.7-0.1,1.4-0.5,2c-0.3,0.6-0.7,1.2-1.2,1.6c-0.5,0.5-1.1,0.8-1.8,1.1
		c-0.7,0.3-1.4,0.4-2.1,0.4c-0.4,0-1-0.1-1.5-0.2c-0.6-0.1-1.1-0.3-1.7-0.6c-0.6-0.3-1.1-0.6-1.5-0.9c-0.5-0.3-0.8-0.8-1-1.2
		c-0.2-0.4-0.6-0.7-1-0.8l-0.4-0.1c-0.3,0-0.6,0.1-0.8,0.2c-0.4,0.2-0.7,0.6-0.8,1L5.9,137c0,0.3,0.1,0.6,0.2,0.8
		c0.3,0.7,0.8,1.3,1.5,1.9c0.6,0.6,1.4,1,2.2,1.4c0.8,0.4,1.6,0.7,2.5,0.9c0.9,0.2,1.7,0.3,2.5,0.3c1.1,0,2.2-0.2,3.3-0.6
		c1.1-0.4,2-1,2.8-1.7c0.8-0.8,1.5-1.6,2-2.7c0.5-1,0.7-2.2,0.7-3.3c0-1.2-0.2-2.2-0.5-3.1c-0.4-0.8-0.9-1.6-1.5-2.3
		c-0.6-0.7-1.4-1.2-2.3-1.7c-0.9-0.5-1.8-0.9-2.9-1.3c-0.5-0.2-1.2-0.4-1.9-0.7c-0.7-0.3-1.4-0.5-2.1-0.9c-0.7-0.3-1.2-0.7-1.7-1.2
		c-0.4-0.4-0.6-0.8-0.6-1.3c0-0.7,0.2-1.3,0.5-1.8c0.3-0.5,0.7-0.9,1.2-1.2c0.5-0.3,1-0.5,1.6-0.6c0.6-0.1,1.2-0.2,1.7-0.2
		c0.4,0,0.8,0,1.2,0.1c0.4,0.1,0.9,0.1,1.3,0.3c0.4,0.2,0.8,0.4,1.3,0.7c0.4,0.3,0.8,0.7,1.1,1.3c0.2,0.4,0.6,0.6,1,0.8l0.4,0.1
		c0.3,0,0.6-0.1,0.8-0.3c0.4-0.2,0.7-0.7,0.7-1.1l0-0.3c0-0.4-0.1-0.7-0.3-1c-0.5-0.7-1.1-1.3-1.7-1.8c-0.6-0.5-1.3-0.8-1.9-1.1
		c-0.6-0.3-1.3-0.4-2-0.5C16.1,114.7,15.4,114.6,14.8,114.6 M519.1,114.7c-1.9,0-3.6,0.3-5.3,1.1c-1.6,0.7-3.1,1.7-4.3,3
		c-1.2,1.3-2.2,2.7-2.9,4.4c-0.7,1.7-1.1,3.5-1.1,5.4c0,1.9,0.3,3.7,1.1,5.4c0.7,1.7,1.7,3.1,2.9,4.4c1.2,1.2,2.6,2.2,4.3,3
		c1.7,0.7,3.4,1.1,5.3,1.1c1.9,0,3.6-0.4,5.3-1.1c1.6-0.7,3.1-1.7,4.3-3c1.2-1.2,2.2-2.7,2.9-4.4c0.7-1.7,1.1-3.5,1.1-5.4
		c0-1.9-0.4-3.7-1.1-5.4c-0.7-1.7-1.7-3.2-2.9-4.4c-1.2-1.3-2.7-2.3-4.3-3C522.8,115,521,114.7,519.1,114.7 M519.1,139.1
		c-1.4,0-2.8-0.3-4-0.8c-1.3-0.5-2.4-1.3-3.3-2.3c-0.9-0.9-1.7-2.1-2.2-3.4c-0.5-1.3-0.8-2.7-0.8-4.1c0-1.5,0.3-2.8,0.8-4.1
		c0.5-1.3,1.3-2.4,2.2-3.4c0.9-1,2-1.7,3.3-2.3c1.3-0.5,2.6-0.8,4-0.8c1.4,0,2.8,0.3,4,0.8c1.3,0.6,2.4,1.3,3.3,2.3
		c0.9,1,1.7,2.1,2.2,3.4c0.5,1.3,0.8,2.7,0.8,4.1c0,1.4-0.3,2.8-0.8,4.1c-0.5,1.3-1.3,2.4-2.2,3.4c-0.9,0.9-2.1,1.7-3.3,2.3
		C521.9,138.9,520.6,139.1,519.1,139.1 M457.8,114.7c-1.9,0-3.6,0.3-5.3,1.1c-1.6,0.7-3.1,1.7-4.3,3c-1.2,1.3-2.2,2.7-2.9,4.4
		c-0.7,1.7-1.1,3.5-1.1,5.4c0,1.9,0.4,3.7,1.1,5.4c0.7,1.7,1.7,3.1,2.9,4.4c1.2,1.2,2.7,2.2,4.3,3c1.6,0.7,3.4,1.1,5.3,1.1
		c1.9,0,3.6-0.4,5.3-1.1c1.6-0.7,3.1-1.7,4.3-3c1.2-1.2,2.2-2.7,2.9-4.4c0.7-1.7,1.1-3.5,1.1-5.4c0-1.9-0.4-3.7-1.1-5.4
		c-0.7-1.7-1.7-3.2-2.9-4.4c-1.2-1.3-2.7-2.3-4.3-3C461.4,115,459.7,114.7,457.8,114.7 M457.8,139.1c-1.4,0-2.8-0.3-4-0.8
		c-1.3-0.5-2.4-1.3-3.3-2.2c-0.9-1-1.7-2.1-2.2-3.4c-0.5-1.3-0.8-2.7-0.8-4.1c0-1.5,0.3-2.9,0.8-4.1c0.5-1.3,1.3-2.4,2.2-3.4
		c0.9-1,2-1.7,3.3-2.3c1.3-0.5,2.6-0.8,4-0.8c1.4,0,2.8,0.3,4.1,0.8c1.3,0.6,2.4,1.3,3.3,2.3c0.9,1,1.7,2.1,2.2,3.4
		c0.5,1.3,0.8,2.7,0.8,4.1c0,1.4-0.3,2.8-0.8,4.1c-0.5,1.3-1.3,2.4-2.2,3.4c-0.9,0.9-2.1,1.7-3.3,2.2
		C460.6,138.9,459.2,139.1,457.8,139.1"/>
	<path class="st1" d="M60.8,5.3H22.5c-2.8,0-1.6,1.4-0.6,1.8c4.2,1.1,6.3,2.5,4.2,10.5c-2,7.9-14,49.8-15.5,54.1
		C9.2,76,7.9,77.3,5,78.6c-1.1,0.5-1.3,1.6,0,1.6h52.4c9.9,0,23.4-7.1,23.4-19.3c0-12.2-5.1-16.2-15-20.5
		c7.7-2.5,16.1-7.3,16.1-16.5C81.9,13.6,71,5.3,60.8,5.3 M48.9,38.1c-3.3,0-5.1-2-4-4.6l4.9-16.1c0.6-2.2,2.5-3.1,3.9-3.1
		c4.7,0,7.6,3.6,7.6,10C61.3,30.7,55.7,38.1,48.9,38.1 M39.6,73.7c-4.2,0-6.5-2.5-5.4-6.3c1.2-3.9,5.4-18.8,5.4-18.8
		c1.2-3.4,3.4-4.6,5.5-4.6c6.1,0,11.9,5.9,11.9,12.5C57.1,63,51,73.7,39.6,73.7"/>
	<path class="st1" d="M184.9,5.2h-38.3c-2.8,0-1.5,1.4-0.6,1.8c4.2,1.1,6.3,2.5,4.3,10.5c-2,7.9-14,49.8-15.5,54.1
		c-1.5,4.3-2.7,5.7-5.7,7c-1.1,0.5-1.3,1.6,0,1.6h52.4c9.9,0,23.4-7.1,23.4-19.4c0-12.2-5.1-16.2-15-20.5
		c7.7-2.5,16.1-7.3,16.1-16.5C206,13.4,195.1,5.2,184.9,5.2 M172.9,38c-3.2,0-5.1-2-4-4.6l4.9-16.1c0.6-2.2,2.5-3.1,3.9-3.1
		c4.6,0,7.6,3.7,7.6,10C185.3,30.6,179.8,38,172.9,38 M163.6,73.5c-4.2,0-6.5-2.5-5.3-6.3c1.2-3.8,5.4-18.8,5.4-18.8
		c1.2-3.4,3.4-4.6,5.5-4.6c6,0,11.9,5.9,11.9,12.5C181.2,62.9,175.1,73.5,163.6,73.5"/>
	<path class="st1" d="M117,26.6c-19.8,0-32.4,8.3-32.4,17c0,3.3,2.6,6.7,6.5,6.7c3.9,0,7.3-2.2,9.2-6.2c1.9-4,4-9.5,9.5-9.5
		c5.4,0,5.5,4.3,4.3,7.9c-1.2,3.6-2.2,7.3-2.2,7.3c-1.1,2.9-2.3,3.3-4.8,3.6c-21.6,3.3-27.6,11.1-27.6,18.9c0,7.8,5.3,9.4,11.2,9.4
		c6.7,0,9.6-1.4,17.5-6.3c0,0,3.1,4.9,9.9,4.9c6.8,0,9.6-2.4,13-6.8c1.2-1.7,0.5-2.5-0.5-2.5c-0.5,0-1.1,0.2-1.7,0.6
		c-1.1,0.8-1.9,1.2-2.5,1.2c-1.2,0-1.4-1.4-1.1-2.8c0.5-2,6.2-21.2,8-27.8C135,35.4,132.5,26.6,117,26.6 M99.2,71.4
		c-2,0-2.4-2.6,0.5-5.8c1.7-2,6.5-5.5,8-5.5c0.2,0,0.3,0,0.3,0.1c0.9,0.8-0.5,3.3-3.4,7.5C102.4,70.3,100.5,71.4,99.2,71.4"/>
	<path class="st1" d="M260.2,29.3h-18.8c-2.6,0-1.8,2.2-0.3,2.7c1.6,0.5,2.8,0.8,2.8,2.1s-11.6,22.4-11.6,22.4s-1.8-18.7-1.8-20.3
		c0-1.6,1.2-3.3,4-4.3c2.8-1,1.5-2.5-0.6-2.5h-25.6c-4.2,0-2.2,2.8-0.1,3.2c1.7,0.5,1.9,1.4,2,3c0.2,1.6,3.6,39.7,3.7,42.8
		c0.2,3.2-0.3,4.9-1.4,6.2c-1.1,1.3-3.6,4.6-5.9,6.3c-3.1-4.4-6-4.4-7.9-4.4c-1.9,0-8.4,2.2-8.4,8.7c0,6.5,5.1,9.4,8.8,9.4
		c3.7,0,7.7-0.8,12.9-7.4c5.1-6.7,47-62.3,48.7-64.7C262.3,29.9,261.7,29.3,260.2,29.3"/>
	<path class="st1" d="M291,2.6c-4.2,3.3-19.5,6.7-30.8,7.1c-3.1,0.2-2.8,3,1.9,4.1c4.7,1.1,4.2,4,3.1,7c-1.1,3-12.9,49-13.5,51.3
		c-0.7,2.2-1,3.8-4.6,4.7c-3.6,1-3,3.2-0.5,3.2h27.8c6.5,0,2.2-2.5,0.6-3.3c-1.5-0.8-3.1-1.4-2.3-4.6C273.4,69,291,2.6,291,2.6"/>
	<path class="st1" d="M318.8,24.4c-4.2,3.3-18.3,6.8-29.6,7.3c-2,0.3-2.2,2.9,1.9,4.1c3.8,1.2,3,3.8,1.9,6.8
		c-1.1,3-7.1,27.3-7.8,29.5c-0.7,2.2,0.2,3.3-3.4,4.2c-3.6,1-3.6,3.7,0.6,3.7h23.7c6.5,0,4-2.5,2.4-3.3c-1.6-0.8-3.1-1.4-2.3-4.6
		C307,69,318.8,24.4,318.8,24.4"/>
	<path class="st1" d="M309,3.1c-5.7,0-16,4.4-16,11.6c0,2.9,2.6,8.1,10.4,8.1c9,0,16.1-6.7,16.1-12.2C319.6,6.8,316.1,3.1,309,3.1"
		/>
	<path class="st1" d="M341.4,25c-8.5,0-16.6,1.4-19.4,12.2c-2.5,7.1,6.7,26.5,6.7,26.5s2,4,2,6c0,2.1-1.4,4.9-5.3,4.9
		c-3.9,0-5.9-4.1-7.7-14c-0.3-1.4-0.6-1.9-1-1.9c-0.5,0-1.1,1-1.4,2.1c-0.6,1.9-4,15.2-4,15.2c4.8,2.7,9.8,5.1,18.5,5.1
		c8.7,0,20-4.4,20-13.6c0-2.9-0.8-5.4-1.7-7.8c-0.9-2.4-6.8-18.9-6.8-18.9s-1.4-2.7-1.4-4c0-1.3,0.3-4.6,5.3-4.6
		c5,0,5.1,7.5,5.3,12.1c0.1,1.4,0.7,2.5,1.5,2.5c0.5,0,1.1-0.6,1.6-1.9c1.1-3.3,4.1-15.6,4.1-15.6C352.7,26.7,349.9,25,341.4,25"/>
	<path class="st1" d="M380.2,25c-8.5,0-16.6,1.4-19.4,12.2c-2.5,7.1,6.7,26.5,6.7,26.5s2,4,2,6c0,2.1-1.4,4.9-5.3,4.9
		c-3.9,0-5.9-4.1-7.8-14c-0.3-1.4-0.6-1.9-1-1.9c-0.5,0-1.1,1-1.4,2.1c-0.6,1.9-4,15.2-4,15.2c4.8,2.7,9.8,5.1,18.5,5.1
		s20-4.4,20-13.6c0-2.9-0.8-5.4-1.7-7.8c-0.9-2.4-6.8-18.9-6.8-18.9s-1.4-2.7-1.4-4c0-1.3,0.3-4.6,5.3-4.6c5,0,5.1,7.5,5.3,12.1
		c0.1,1.4,0.7,2.5,1.5,2.5c0.5,0,1.1-0.6,1.6-1.9c1.1-3.3,4.1-15.6,4.1-15.6C391.4,26.7,388.7,25,380.2,25"/>
	<path class="st1" d="M405.8,27.3c-3.4,0-6.2,2.6-6.2,6.2c0,3.6,2.8,6.3,6.2,6.3c3.3,0,6.2-2.6,6.2-6.3
		C412,29.9,409.2,27.3,405.8,27.3 M405.8,38.7c-2.8,0-5-2.2-5-5.2c0-3,2.2-5.2,5-5.2c2.8,0,5,2.2,5,5.2
		C410.8,36.5,408.6,38.7,405.8,38.7 M406.2,29.9h-2.7v7.2h1.1V34h1.2l1.9,3.1h1.2l-2-3.2c1-0.1,1.8-0.7,1.8-2
		C408.7,30.6,407.8,29.9,406.2,29.9 M404.6,33.1v-2.2h1.4c0.8,0,1.5,0.2,1.5,1.1c0,1.1-0.8,1.2-1.7,1.2H404.6z"/>
</g>
</svg>
